<?xml version="1.0" encoding="utf-8"?>
<!-- Generator: Adobe Illustrator 25.3.0, SVG Export Plug-In . SVG Version: 6.00 Build 0)  -->
<svg version="1.1" id="Calque_1" xmlns="http://www.w3.org/2000/svg" xmlns:xlink="http://www.w3.org/1999/xlink" x="0px" y="0px"
	 viewBox="0 0 1000 334" style="enable-background:new 0 0 1000 334;" xml:space="preserve">
<style type="text/css">
	.st0{fill:#FFFFFF;}
</style>
<path class="st0" d="M38.94,269.96H14.16v11.12h24.77v11.12H14.16v11.12h24.77v11.12H3.04v-55.59h35.89V269.96z M64.83,273.77
	c7.3,0,12.31,2.3,15.8,5.88l-5.88,7.62c-2.22-2.46-6.51-4.05-10.72-4.05c-3.41,0-5.08,0.95-5.08,2.78c0,1.99,2.14,2.46,9.21,3.97
	c6.91,1.43,12.71,4.13,12.71,12.47c0,9.13-6.59,12.94-17.15,12.94c-7.62,0-14.13-2.14-17.63-6.59l6.11-7.94
	c2.62,3.18,6.91,5.16,12.55,5.16c2.94,0,5.32-0.79,5.32-3.02s-2.14-2.54-8.81-4.05c-5.95-1.27-13.18-3.89-13.18-12.55
	C48.07,278.38,54.35,273.77,64.83,273.77z M108.31,273.77c6.35,0,11.51,2.22,15.09,5.8l-5.95,8.42c-2.22-2.22-5.08-3.97-9.13-3.97
	c-5.96,0-10.4,4.21-10.4,10.56s4.45,10.56,10.4,10.56c4.05,0,7.15-1.83,9.37-4.05l5.8,8.42c-3.41,3.41-8.66,5.88-15.33,5.88
	c-12.15,0-21.04-8.18-21.04-20.8C87.11,282.03,96,273.77,108.31,273.77z M149.66,273.77c12.23,0,21.36,8.42,21.36,20.8
	c0,12.39-9.13,20.8-21.36,20.8s-21.36-8.42-21.36-20.8C128.3,282.19,137.43,273.77,149.66,273.77z M149.66,284.01
	c-6.03,0-10.56,4.21-10.56,10.56s4.53,10.56,10.56,10.56s10.56-4.21,10.56-10.56S155.7,284.01,149.66,284.01z M190.63,314.43h-10.56
	v-55.59h10.56V314.43z M216.91,273.85c11.67,0,17.39,5,17.39,16.12v24.54h-10.48v-5.4c-2.14,3.18-5.96,6.19-12.23,6.19
	c-7.86,0-13.42-5.08-13.42-12.39c0-7.15,5.4-11.83,12.71-12.47l10.88-0.95c1.35-0.16,2.06-0.72,2.06-1.59v-0.64
	c0-2.3-2.14-3.97-6.91-3.97c-4.13,0-8.5,1.35-9.93,5.08l-7.78-5.56C201.83,276.79,208.26,273.85,216.91,273.85z M213.98,297.99
	c-3.25,0.56-4.92,2.14-4.92,4.37c0,2.54,1.91,4.21,5.64,4.21c5.56,0,9.13-3.81,9.13-8.18v-1.59L213.98,297.99z M310.47,314.43
	h-10.48v-5.56c-2.86,4.05-7.38,6.59-13.18,6.59c-9.85,0-18.1-7.54-18.1-20.88s8.18-20.88,17.95-20.88c6.27,0,10.56,2.94,13.34,6.75
	v-21.6h10.48V314.43z M279.5,294.58c0,6.43,4.45,10.64,10.4,10.64s10.4-4.05,10.4-10.64c0-6.67-4.45-10.64-10.4-10.64
	S279.5,288.14,279.5,294.58z M327.39,272.18c-2.62-1.19-4.45-3.73-4.45-6.83c0-4.05,3.18-7.46,7.38-7.46c4.21,0,7.38,3.41,7.38,7.46
	c0,1.59-0.48,2.94-1.35,4.13l-9.29,15.09l-5.4-3.02L327.39,272.18z M344.78,305.69l-4.05,8.74H328.5l25.73-55.59h10.32l25.73,55.59
	h-12.23l-4.05-8.74H344.78z M368.84,294.58l-9.45-20.49l-9.45,20.49H368.84z M418.4,273.77c1.51,0,2.62,0.24,3.89,0.56v11.28
	c-1.51-0.56-3.1-0.64-4.77-0.64c-6.99,0-10,3.89-10,11.51v17.95h-10.48v-39.7h10.09v6.51C409.27,276.55,412.76,273.77,418.4,273.77z
	 M446.46,314.82c-7.38,0-11.67-3.41-11.67-12.55v-18.74h-7.23v-8.81h7.23v-10.64h10.48v10.64h10.08v8.81h-10.08v17.23
	c0,2.54,1.19,3.57,3.97,3.57c1.59,0,2.94-0.08,5.8-0.64v9.93C452.1,314.35,449.08,314.82,446.46,314.82z M496.26,256.62
	c3.81,0,6.75,2.94,6.75,6.75s-2.94,6.67-6.75,6.67s-6.67-2.86-6.67-6.67S492.45,256.62,496.26,256.62z M501.5,314.43h-10.48v-39.7
	h10.48V314.43z M587.9,286.63c0,16.04-11.59,27.79-27.24,27.79H540.5v-55.59h20.17C576.31,258.84,587.9,270.59,587.9,286.63z
	 M560.66,269.96h-9.05v33.35h9.05c9.53,0,16.12-7.15,16.12-16.68S570.19,269.96,560.66,269.96z M601.89,256.62
	c3.81,0,6.75,2.94,6.75,6.75s-2.94,6.67-6.75,6.67s-6.67-2.86-6.67-6.67S598.07,256.62,601.89,256.62z M607.13,314.43h-10.48v-39.7
	h10.48V314.43z M634.33,273.77c7.3,0,12.31,2.3,15.8,5.88l-5.88,7.62c-2.22-2.46-6.51-4.05-10.72-4.05c-3.41,0-5.08,0.95-5.08,2.78
	c0,1.99,2.14,2.46,9.21,3.97c6.91,1.43,12.71,4.13,12.71,12.47c0,9.13-6.59,12.94-17.15,12.94c-7.62,0-14.13-2.14-17.63-6.59
	l6.11-7.94c2.62,3.18,6.91,5.16,12.55,5.16c2.94,0,5.32-0.79,5.32-3.02s-2.14-2.54-8.81-4.05c-5.96-1.27-13.18-3.89-13.18-12.55
	C617.58,278.38,623.85,273.77,634.33,273.77z M674.71,273.77c7.3,0,12.31,2.3,15.8,5.88l-5.88,7.62c-2.22-2.46-6.51-4.05-10.72-4.05
	c-3.41,0-5.08,0.95-5.08,2.78c0,1.99,2.14,2.46,9.21,3.97c6.91,1.43,12.71,4.13,12.71,12.47c0,9.13-6.59,12.94-17.15,12.94
	c-7.62,0-14.13-2.14-17.63-6.59l6.11-7.94c2.62,3.18,6.91,5.16,12.55,5.16c2.94,0,5.32-0.79,5.32-3.02s-2.14-2.54-8.81-4.05
	c-5.96-1.27-13.18-3.89-13.18-12.55C657.96,278.38,664.23,273.77,674.71,273.77z M717.32,273.77c12.15,0,19.61,8.34,19.61,21.12
	v2.86h-29.22l0.08,0.16c1.27,5.32,5.96,7.62,10.64,7.62c4.76,0,8.5-1.59,11.27-4.05l4.37,8.66c-3.26,2.78-8.18,5.24-15.8,5.24
	c-13.42,0-21.28-8.97-21.28-20.8C696.99,282.82,704.85,273.77,717.32,273.77z M717,282.66c-5.08,0-8.34,2.7-9.37,7.46h17.87
	C724.94,285.76,722.08,282.66,717,282.66z M767.27,273.77c9.29,0,14.05,5.96,14.05,16.04v24.62h-10.72v-22
	c0-6.04-2.78-8.58-7.23-8.58c-6.11,0-8.66,4.53-8.66,11.59v18.98h-10.48v-39.7h10.16v5.72
	C757.19,276.55,761.47,273.77,767.27,273.77z M801.26,308.71l-16.83-33.99h12.23l10.16,21.76l9.77-21.76h11.12l-25.01,55.58h-11.12
	L801.26,308.71z M213.93,9.68h-40.14v209.68H310.5V182.2h-96.57V9.68z M684,9.68H518.19v37.16h62.97v172.52h39.86V46.84H684V9.68z
	 M921.96,9.68h-50.41l-73.04,209.68h42.26l14.19-42h83.61l14.19,42H995L921.96,9.68z M867.32,140.21L896.6,54.1l29.28,86.11H867.32z
	 M412.8,4.07c-60.44,0-109.43,48.99-109.43,109.43c0,60.43,48.99,109.42,109.43,109.42c60.43,0,109.42-48.99,109.42-109.42
	C522.23,53.06,473.24,4.07,412.8,4.07z M487.98,146.76c-2.12,3.42-5.34,6.26-9.63,8.18c-33.21,14.62-76.57,26.95-98.8,29.72
	c-3.22,0.4-5.92-0.05-8.18-1.06c-7.52-3.36-9.62-13.51-10.5-17.62c-3.17-14.82-1.43-81.43,5.39-112.73
	c3.3-15.16,16.77-15.27,25.64-13.54c65.97,12.85,96.17,71.82,98.66,90.97C491.83,140.47,487.98,146.76,487.98,146.76z M107.27,159.9
	c-9.25,5.04-31.26,20.17-38.13,23.79c-11.06,5.82-23.34,9.28-29.86-2.23C19.19,146.03,65.28,94.73,94.72,68.22
	c49.47-44.53-16.84-97.21-52.16-34.38C21.14,71.93,0.88,139.05,3.23,178.33c1.54,25.79,15.11,41.04,37.3,41.04
	c23.24,0,55.23,0,80.63,0c22.74-0.02,33.89-17.78,32.78-34.37C152.56,164.35,130.57,147.2,107.27,159.9z M767.09,5.2
	c-2.3-0.51-4.69-0.79-7.15-0.79c-0.86,0-1.72,0.04-2.56,0.11c-16.92,1.3-30.26,15.37-30.41,32.59c0,0.09,0.21,4.56,0.6,6.6
	c0.61,3.85,1.63,7.96,2.93,12.07c2.42,7.66,5.8,15.27,9.18,21.01l12.58,20.38c23.14,41.53,14.29,70.37-16.53,77.01l-35.11,6.51
	c-0.85,0.17-1.74,0.26-2.64,0.26c-7.49,0-13.55-6.07-13.55-13.55c0-4.74,2.43-8.91,6.12-11.33l24.93-16.83
	c6.11-4.09,10.13-11.05,10.13-18.95c0-12.58-10.2-22.79-22.79-22.79c-10.29,0-19.58,4.27-26.21,11.13
	c-12.23,12.75-20.48,30.07-19.75,49.12c2.23,57.83,43.96,64.78,67.4,65.19c50.45,0.87,68.32-30.59,68.32-67.51l0.35-88.32V45.12
	v-7.73c0-4.4-0.87-8.59-2.43-12.43C786.45,15.06,777.74,7.55,767.09,5.2z"/>
</svg>
