<?xml version="1.0" encoding="UTF-8"?>
<!-- Generator: Adobe Illustrator 25.3.0, SVG Export Plug-In . SVG Version: 6.00 Build 0)  -->
<svg version="1.1" id="Calque_1" xmlns="http://www.w3.org/2000/svg" xmlns:xlink="http://www.w3.org/1999/xlink" x="0px" y="0px" viewBox="0 0 1000 132.7" style="enable-background:new 0 0 1000 132.7;" xml:space="preserve">
<path d="M619.6,15.3h-22.4v10.1h22.4v10.1h-22.4v10.1h22.4v10.1h-32.5V5.2h32.5V15.3z M643.9,18.7c6.6,0,11.2,2.1,14.3,5.3l-5.3,6.9  c-2-2.2-5.9-3.7-9.7-3.7c-3.1,0-4.6,0.9-4.6,2.5c0,1.8,1.9,2.2,8.3,3.6c6.3,1.3,11.5,3.7,11.5,11.3c0,8.3-6,11.7-15.5,11.7  c-6.9,0-12.8-1.9-15.9-6l5.5-7.2c2.4,2.9,6.3,4.7,11.4,4.7c2.7,0,4.8-0.7,4.8-2.7s-1.9-2.3-8-3.7c-5.4-1.1-11.9-3.5-11.9-11.3  C628.7,22.9,634.4,18.7,643.9,18.7z M682.7,18.7c5.7,0,10.4,2,13.6,5.2l-5.4,7.6c-2.1-2.3-5.1-3.6-8.3-3.6c-5.4,0-9.4,3.8-9.4,9.6  s4,9.6,9.4,9.6c3.2,0,6.3-1.4,8.5-3.7l5.2,7.6c-3.1,3.1-7.8,5.3-13.9,5.3c-11,0-19-7.4-19-18.8S671.6,18.7,682.7,18.7L682.7,18.7z   M719.6,18.7c11.1,0,19.3,7.6,19.3,18.8s-8.3,18.8-19.3,18.8s-19.3-7.6-19.3-18.8S708.5,18.7,719.6,18.7L719.6,18.7z M719.6,28  c-5.5,0-9.6,3.8-9.6,9.6s4.1,9.6,9.6,9.6s9.6-3.8,9.6-9.6S725,28,719.6,28L719.6,28z M756.1,55.5h-9.6V5.2h9.6V55.5z M780.7,18.8  c10.6,0,15.7,4.5,15.7,14.6v22.2H787v-4.9c-1.9,2.9-5.4,5.6-11.1,5.6c-7.1,0-12.1-4.6-12.1-11.2c0-6.5,4.9-10.7,11.5-11.3l9.8-0.9  c1.2-0.1,1.9-0.6,1.9-1.4V31c0-2.1-1.9-3.6-6.3-3.6c-3.7,0-7.7,1.2-9,4.6l-7-5C767.1,21.5,772.9,18.8,780.7,18.8L780.7,18.8z   M778.1,40.7c-3,0.5-4.5,1.9-4.5,4c0,2.3,1.7,3.8,5.1,3.8c5,0,8.3-3.4,8.3-7.4v-1.4L778.1,40.7z M864.8,55.5h-9.5v-5  c-2.7,3.9-7.2,6.1-12,6c-8.9,0-16.4-6.8-16.4-18.9s7.4-18.9,16.2-18.9c4.8-0.1,9.3,2.2,12.1,6.1V5.3h9.5L864.8,55.5z M836.8,37.6  c0,5.8,4,9.6,9.4,9.6s9.4-3.7,9.4-9.6s-4-9.6-9.4-9.6C840.7,28,836.8,31.7,836.8,37.6L836.8,37.6z M880.3,17.3  c-3.4-1.4-5-5.4-3.6-8.8c1.4-3.4,5.4-5,8.8-3.6c2.5,1.1,4.1,3.5,4.1,6.2c0,1.3-0.4,2.7-1.2,3.7L880,28.5l-4.9-2.7L880.3,17.3z   M896.1,47.6l-3.7,7.9h-11.1l23.3-50.3h9.3l23.3,50.3h-11.1l-3.7-7.9H896.1z M917.9,37.6L909.3,19l-8.6,18.5L917.9,37.6z   M962.8,18.7c1.2,0,2.4,0.2,3.5,0.5v10.2c-1.4-0.4-2.8-0.6-4.3-0.6c-6.3,0-9.1,3.5-9.1,10.4v16.2h-9.5V19.6h9.2v5.9  C954.5,21.2,957.7,18.7,962.8,18.7L962.8,18.7z M987.7,55.9c-6.7,0-10.6-3.1-10.6-11.3v-17h-6.5v-8h6.5V10h9.5v9.6h9.1v8h-9.1v15.6  c0,2.3,1.1,3.2,3.6,3.2c1.8,0,3.5-0.2,5.2-0.6v9C992.9,55.4,990.3,55.8,987.7,55.9z M591.9,66.1c3.4-0.1,6.2,2.5,6.3,5.9  c0.1,3.4-2.5,6.2-5.9,6.3c-0.1,0-0.3,0-0.4,0c-3.4-0.1-6-2.9-5.9-6.3C586.2,68.7,588.7,66.2,591.9,66.1z M596.6,118.4h-9.5V82.5h9.5  V118.4z M670.3,93.2c0,14.5-10.5,25.1-24.6,25.1h-18.2V68.1h18.3C659.9,68.1,670.3,78.7,670.3,93.2z M645.7,78.2h-8.2v30.2h8.2  c8.6,0,14.6-6.5,14.6-15.1S654.3,78.2,645.7,78.2L645.7,78.2z M682.4,66.1c3.4-0.1,6.2,2.5,6.3,5.9s-2.5,6.2-5.9,6.3  c-0.1,0-0.3,0-0.4,0c-3.4-0.1-6-2.9-5.9-6.3C676.6,68.7,679.2,66.2,682.4,66.1z M687.1,118.4h-9.5V82.5h9.5V118.4z M711.2,81.6  c6.6,0,11.2,2.1,14.3,5.3l-5.3,6.9c-2-2.2-5.9-3.7-9.7-3.7c-3.1,0-4.6,0.9-4.6,2.5c0,1.8,1.9,2.2,8.3,3.6  c6.2,1.3,11.5,3.7,11.5,11.3c0,8.3-6,11.7-15.5,11.7c-6.9,0-12.8-1.9-15.9-6l5.5-7.2c2.4,2.9,6.3,4.7,11.3,4.7  c2.7,0,4.8-0.7,4.8-2.7s-1.9-2.3-8-3.7c-5.4-1.1-12-3.5-12-11.3C696.1,85.8,701.7,81.6,711.2,81.6L711.2,81.6z M745.8,81.6  c6.6,0,11.2,2.1,14.3,5.3l-5.3,6.9c-2-2.2-5.9-3.7-9.7-3.7c-3.1,0-4.6,0.9-4.6,2.5c0,1.8,1.9,2.2,8.3,3.6  c6.3,1.3,11.5,3.7,11.5,11.3c0,8.3-6,11.7-15.5,11.7c-6.9,0-12.8-1.9-15.9-6l5.5-7.2c2.4,2.9,6.3,4.7,11.4,4.7  c2.7,0,4.8-0.7,4.8-2.7s-1.9-2.3-8-3.7c-5.4-1.1-11.9-3.5-11.9-11.3C730.6,85.8,736.3,81.6,745.8,81.6L745.8,81.6z M783.8,81.6  c11,0,17.7,7.5,17.7,19.1v2.6h-26.4l0.1,0.1c1.1,4.8,5.4,6.9,9.6,6.9c3.7,0.1,7.4-1.2,10.2-3.7l4,7.8c-3,2.5-7.4,4.7-14.3,4.7  c-12.1,0-19.3-8.1-19.3-18.8S772.5,81.6,783.8,81.6L783.8,81.6z M783.5,89.7c-4.6,0-7.5,2.4-8.5,6.8h16.2  C790.7,92.5,788.1,89.6,783.5,89.7L783.5,89.7z M829.8,81.6c8.4,0,12.8,5.4,12.8,14.5v22.3h-9.7V98.5c0-5.5-2.5-7.8-6.5-7.8  c-5.5,0-7.8,4.1-7.8,10.5v17.2H809V82.5h9.2v5.2C820.8,83.8,825.2,81.5,829.8,81.6z M861.3,113.2l-15.2-30.7h11.1l9.2,19.7l8.9-19.7  h10.1l-22.7,50.3h-10.1L861.3,113.2z M118.3,5.3H96.6v113.4h73.9V98.6h-52.2V5.3z M372.4,5.3h-89.6v20.1h34v93.3h21.5V25.4h34  L372.4,5.3z M501,5.3h-27.3l-39.5,113.4h22.8l7.7-22.7H510l7.7,22.7h22.8L501,5.3z M471.5,75.8l15.8-46.6l15.8,46.6H471.5z   M225.8,2.3c-32.7,0-59.2,26.5-59.2,59.2s26.5,59.2,59.2,59.2S285,94.1,285,61.4S258.5,2.3,225.8,2.3C225.8,2.3,225.8,2.3,225.8,2.3  L225.8,2.3z M266.5,79.4c-1.3,2-3.1,3.5-5.2,4.4c-17.9,7.9-41.4,14.6-53.4,16.1c-1.5,0.2-3,0-4.4-0.6c-4.1-1.8-5.2-7.3-5.7-9.5  c-1.7-8-0.8-44,2.9-60.9c1.8-8.2,9.1-8.3,13.9-7.3c35.7,7,52,38.8,53.3,49.2C268.3,73.7,267.8,76.7,266.5,79.4L266.5,79.4z   M60.6,86.5c-5,2.7-16.9,10.9-20.6,12.9c-6,3.1-12.6,5-16.1-1.2C13,79,37.9,51.3,53.8,36.9c26.7-24.1-9.1-52.5-28.2-18.6  C14,39,3.1,75.2,4.4,96.5c0.8,13.9,8.2,22.2,20.2,22.2h43.6c12.3,0,18.3-9.6,17.7-18.6C85.1,88.9,73.2,79.6,60.6,86.5z M417.3,2.9  c-1.3-0.3-2.6-0.4-3.9-0.4c-0.5,0-0.9,0-1.4,0.1c-9.2,0.7-16.4,8.4-16.4,17.6c0,1.2,0.2,2.4,0.3,3.6c0.4,2.2,0.9,4.4,1.6,6.5  c1.2,4,2.9,7.8,5,11.4l6.8,11c12.5,22.5,7.7,38-8.9,41.6l-19,3.5c-0.5,0.1-0.9,0.1-1.4,0.1c-4,0-7.3-3.3-7.3-7.4  c0-2.5,1.3-4.7,3.3-6.1l13.4-9.1c5.7-3.8,7.2-11.4,3.4-17.1c-2.3-3.4-6.1-5.5-10.2-5.5c-5.3,0-10.5,2.2-14.2,6  c-6.6,6.9-11.1,16.3-10.7,26.6c1.2,31.3,23.8,35,36.4,35.2c27.3,0.4,37-16.5,37-36.5l0.2-47.7V20.3C431.3,11.9,425.5,4.7,417.3,2.9  L417.3,2.9z"/>
</svg>