<svg id="Capa_1" data-name="Capa 1" xmlns="http://www.w3.org/2000/svg" viewBox="0 0 243 243"><defs><style>.cls-1{fill:#010101;}.cls-2{fill:#ed1d24;}.cls-3{fill:#fff;}</style></defs><polygon class="cls-1" points="0 243 243 243 0 0 0 243"/><polygon class="cls-2" points="0 0 243 243 243 0 0 0"/><path class="cls-3" d="M70.87,146.36h1.44L97,203.16H95.27l-8.83-20.32H56.69l-8.86,20.32H46.07Zm14.87,34.88L71.59,148.68l-14.2,32.56Z"/><path class="cls-3" d="M123,163.24a16.39,16.39,0,0,0-10.16,3.88,19,19,0,0,0-6,9.8v26.24h-1.6V161.64h1.6v10.72a20.51,20.51,0,0,1,5.8-7.24,15.36,15.36,0,0,1,7.72-3.32l1.48-.12c.45,0,.84,0,1.16,0Z"/><path class="cls-3" d="M147.27,201.64a18.89,18.89,0,0,1-3.68,1.76,12.24,12.24,0,0,1-3.92.56,8,8,0,0,1-3.56-.8,6.71,6.71,0,0,1-2.64-2.27,5.81,5.81,0,0,1-1-3.39V163.24h-6v-1.6h6V147.16h1.6v14.48h10v1.6h-10v34.27a4.6,4.6,0,0,0,1.84,3.6,6.1,6.1,0,0,0,3.76,1.25,10.5,10.5,0,0,0,4.72-1c1.28-.64,1.94-1,2-1Z"/><path class="cls-3" d="M166.79,204a22.61,22.61,0,0,1-8.72-1.64,19.45,19.45,0,0,1-7.12-5.08l1.2-1a22.26,22.26,0,0,0,6.72,4.64,19.63,19.63,0,0,0,7.92,1.52q6.15,0,10-2.68a8.52,8.52,0,0,0,3.84-7.4,6.54,6.54,0,0,0-1.68-4.76,12.21,12.21,0,0,0-4.92-2.8c-2.16-.72-4.79-1.42-7.88-2.12q-4.25-1-7.08-2a9,9,0,0,1-4.24-2.76,7.88,7.88,0,0,1-1.4-5,10.48,10.48,0,0,1,2-6.72,12.14,12.14,0,0,1,5.36-3.8,20.65,20.65,0,0,1,7.24-1.24,19.74,19.74,0,0,1,8.6,1.72,10.51,10.51,0,0,1,4.92,4.28l-1.44.64a9.47,9.47,0,0,0-5-3.76,21.3,21.3,0,0,0-7.44-1.28,18.54,18.54,0,0,0-6.32,1,10.42,10.42,0,0,0-4.64,3.2,8.69,8.69,0,0,0-1.76,5.68,6.66,6.66,0,0,0,1.2,4.24,7.78,7.78,0,0,0,3.68,2.4q2.47.89,6.32,1.84c3.3.75,6.16,1.52,8.56,2.32a13.71,13.71,0,0,1,5.52,3.16,7.62,7.62,0,0,1,1.92,5.56,10.38,10.38,0,0,1-4.24,8.68Q173.75,204,166.79,204Z"/><path class="cls-3" d="M37.74,133.51v-31.8l-11.55,23.1H19.51L8,101.71v31.8H-4.26V80.26H9.09l13.8,27.83,13.8-27.83H50v53.25Z"/><path class="cls-3" d="M66.16,80.26h13.2l18.45,53.25H85.21L81.6,121.59H64l-3.63,11.92H47.79Zm12.9,32.93L72.84,92.64l-6.26,20.55Z"/><path class="cls-3" d="M95.49,133.51V80.26h23.92a15.85,15.85,0,0,1,7,1.58A17.9,17.9,0,0,1,132,86a19.64,19.64,0,0,1,3.6,5.78,17.28,17.28,0,0,1,1.32,6.6,18.18,18.18,0,0,1-1.09,6.22,17.49,17.49,0,0,1-3,5.33,16.78,16.78,0,0,1-4.57,3.82l11.7,19.8H126.31l-10.2-17.17h-8.32v17.17Zm12.3-28h11.32a4.14,4.14,0,0,0,2.59-.9,6.64,6.64,0,0,0,1.91-2.55,9,9,0,0,0,.75-3.75,8.12,8.12,0,0,0-.86-3.86A6.93,6.93,0,0,0,121.32,92a4.65,4.65,0,0,0-2.66-.9H107.79Z"/><path class="cls-3" d="M144,80.26l12.53,38.85,12.37-38.85h13l-19.35,53.25H150.46L131,80.26Z"/><path class="cls-3" d="M216.76,122.71v10.8H179.34V80.26h36.75v10.8H191.64v10.35h21v10h-21v11.32Z"/><path class="cls-3" d="M216.76,133.51V80.26h12.3v42.45h25.8v10.8Z"/></svg>